<mxfile host="app.diagrams.net" modified="2025-05-23T16:00:00.000Z" agent="Mozilla/5.0" version="21.3.7">
  <diagram name="AWS Architecture" id="aws-architecture">
    <mxGraphModel dx="1422" dy="762" grid="1" gridSize="10" guides="1" tooltips="1" connect="1" arrows="1" fold="1" page="1" pageScale="1" pageWidth="850" pageHeight="1100" math="0" shadow="0">
      <root>
        <mxCell id="0" />
        <mxCell id="1" parent="0" />
        
        <!-- VPC Container -->
        <mxCell id="vpc" value="VPC (10.0.0.0/16)" style="points=[[0,0],[0.25,0],[0.5,0],[0.75,0],[1,0],[1,0.25],[1,0.5],[1,0.75],[1,1],[0.75,1],[0.5,1],[0.25,1],[0,1],[0,0.75],[0,0.5],[0,0.25]];outlineConnect=0;gradientColor=none;html=1;whiteSpace=wrap;fontSize=12;fontStyle=0;container=1;pointerEvents=0;collapsible=0;recursiveResize=0;shape=mxgraph.aws4.group;grIcon=mxgraph.aws4.group_vpc;strokeColor=#248814;fillColor=none;verticalAlign=top;align=left;spacingLeft=30;fontColor=#AAB7B8;dashed=0;" vertex="1" parent="1">
          <mxGeometry x="120" y="120" width="600" height="400" as="geometry" />
        </mxCell>
        
        <!-- Public Subnet -->
        <mxCell id="public_subnet" value="Public Subnet (10.0.0.0/24)" style="points=[[0,0],[0.25,0],[0.5,0],[0.75,0],[1,0],[1,0.25],[1,0.5],[1,0.75],[1,1],[0.75,1],[0.5,1],[0.25,1],[0,1],[0,0.75],[0,0.5],[0,0.25]];outlineConnect=0;gradientColor=none;html=1;whiteSpace=wrap;fontSize=12;fontStyle=0;container=1;pointerEvents=0;collapsible=0;recursiveResize=0;shape=mxgraph.aws4.group;grIcon=mxgraph.aws4.group_security_group;grStroke=0;strokeColor=#248814;fillColor=#E9F3E6;verticalAlign=top;align=left;spacingLeft=30;fontColor=#248814;dashed=0;" vertex="1" parent="vpc">
          <mxGeometry x="40" y="50" width="520" height="320" as="geometry" />
        </mxCell>
        
        <!-- EC2 Instance -->
        <mxCell id="ec2" value="EC2 Instance&#xa;t2.micro&#xa;Web Server" style="sketch=0;points=[[0,0,0],[0.25,0,0],[0.5,0,0],[0.75,0,0],[1,0,0],[0,1,0],[0.25,1,0],[0.5,1,0],[0.75,1,0],[1,1,0],[0,0.25,0],[0,0.5,0],[0,0.75,0],[1,0.25,0],[1,0.5,0],[1,0.75,0]];outlineConnect=0;fontColor=#232F3E;gradientColor=#F78E04;gradientDirection=north;fillColor=#D05C17;strokeColor=#ffffff;dashed=0;verticalLabelPosition=bottom;verticalAlign=top;align=center;html=1;fontSize=12;fontStyle=0;aspect=fixed;shape=mxgraph.aws4.resourceIcon;resIcon=mxgraph.aws4.ec2;" vertex="1" parent="public_subnet">
          <mxGeometry x="220" y="120" width="78" height="78" as="geometry" />
        </mxCell>
        
        <!-- Security Group -->
        <mxCell id="sg" value="Security Group&#xa;Inbound: TCP 80" style="fillColor=none;strokeColor=#DD3522;verticalAlign=top;fontStyle=0;fontColor=#DD3522;whiteSpace=wrap;html=1;dashed=1;" vertex="1" parent="public_subnet">
          <mxGeometry x="180" y="80" width="160" height="160" as="geometry" />
        </mxCell>
        
        <!-- Network ACL -->
        <mxCell id="nacl" value="Network ACL&#xa;Allow All Traffic" style="sketch=0;outlineConnect=0;fontColor=#232F3E;gradientColor=none;fillColor=#4D27AA;strokeColor=none;dashed=0;verticalLabelPosition=bottom;verticalAlign=top;align=center;html=1;fontSize=12;fontStyle=0;aspect=fixed;pointerEvents=1;shape=mxgraph.aws4.network_access_control_list;" vertex="1" parent="public_subnet">
          <mxGeometry x="40" y="120" width="78" height="78" as="geometry" />
        </mxCell>
        
        <!-- Route Table -->
        <mxCell id="rt" value="Route Table&#xa;0.0.0.0/0 â†’ IGW" style="sketch=0;outlineConnect=0;fontColor=#232F3E;gradientColor=none;fillColor=#4D27AA;strokeColor=none;dashed=0;verticalLabelPosition=bottom;verticalAlign=top;align=center;html=1;fontSize=12;fontStyle=0;aspect=fixed;pointerEvents=1;shape=mxgraph.aws4.route_table;" vertex="1" parent="public_subnet">
          <mxGeometry x="400" y="120" width="78" height="76" as="geometry" />
        </mxCell>
        
        <!-- Elastic IP -->
        <mxCell id="eip" value="Elastic IP" style="sketch=0;outlineConnect=0;fontColor=#232F3E;gradientColor=none;fillColor=#4D27AA;strokeColor=none;dashed=0;verticalLabelPosition=bottom;verticalAlign=top;align=center;html=1;fontSize=12;fontStyle=0;aspect=fixed;pointerEvents=1;shape=mxgraph.aws4.elastic_ip_address;" vertex="1" parent="public_subnet">
          <mxGeometry x="220" y="240" width="78" height="34" as="geometry" />
        </mxCell>
        
        <!-- Internet Gateway -->
        <mxCell id="igw" value="Internet Gateway" style="sketch=0;outlineConnect=0;fontColor=#232F3E;gradientColor=none;fillColor=#4D27AA;strokeColor=none;dashed=0;verticalLabelPosition=bottom;verticalAlign=top;align=center;html=1;fontSize=12;fontStyle=0;aspect=fixed;pointerEvents=1;shape=mxgraph.aws4.internet_gateway;" vertex="1" parent="1">
          <mxGeometry x="380" y="40" width="78" height="78" as="geometry" />
        </mxCell>
        
        <!-- Connections -->
        <mxCell id="conn_vpc_igw" style="edgeStyle=orthogonalEdgeStyle;rounded=0;orthogonalLoop=1;jettySize=auto;html=1;" edge="1" parent="1" source="vpc" target="igw">
          <mxGeometry relative="1" as="geometry">
            <Array as="points">
              <mxPoint x="420" y="120" />
              <mxPoint x="420" y="120" />
            </Array>
          </mxGeometry>
        </mxCell>
        
        <mxCell id="conn_rt_igw" style="edgeStyle=orthogonalEdgeStyle;rounded=0;orthogonalLoop=1;jettySize=auto;html=1;" edge="1" parent="1" source="rt" target="igw">
          <mxGeometry relative="1" as="geometry">
            <Array as="points">
              <mxPoint x="600" y="210" />
              <mxPoint x="600" y="80" />
            </Array>
          </mxGeometry>
        </mxCell>
        
        <mxCell id="conn_ec2_eip" style="edgeStyle=orthogonalEdgeStyle;rounded=0;orthogonalLoop=1;jettySize=auto;html=1;" edge="1" parent="1" source="ec2" target="eip">
          <mxGeometry relative="1" as="geometry" />
        </mxCell>
      </root>
    </mxGraphModel>
  </diagram>
</mxfile>
